{
	"asset":{
		"generator":"Khronos glTF Blender I/O v4.1.62",
		"version":"2.0"
	},
	"scene":0,
	"scenes":[
		{
			"name":"Scene",
			"nodes":[
				0
			]
		}
	],
	"nodes":[
		{
			"mesh":0,
			"name":"Curve.002",
			"rotation":[
				0.7070521712303162,
				0.008790092542767525,
				0.0087899686768651,
				0.7070521712303162
			],
			"scale":[
				2.6566593647003174,
				2.6566593647003174,
				2.6566593647003174
			]
		}
	],
	"materials":[
		{
			"doubleSided":true,
			"name":"Material.005",
			"normalTexture":{
				"index":0,
				"scale":1.7599998712539673
			},
			"pbrMetallicRoughness":{
				"baseColorTexture":{
					"index":1
				},
				"metallicFactor":0,
				"metallicRoughnessTexture":{
					"index":2
				}
			}
		}
	],
	"meshes":[
		{
			"name":"Curve.003",
			"primitives":[
				{
					"attributes":{
						"POSITION":0,
						"NORMAL":1,
						"TEXCOORD_0":2
					},
					"indices":3,
					"material":0
				}
			]
		}
	],
	"textures":[
		{
			"sampler":0,
			"source":0
		},
		{
			"sampler":0,
			"source":1
		},
		{
			"sampler":0,
			"source":2
		}
	],
	"images":[
		{
			"mimeType":"image/png",
			"name":"NormBake12 (1)",
			"uri":"NormBake12%201.png"
		},
		{
			"mimeType":"image/png",
			"name":"c0cb8eb0-21f9-4d5d-8694-1def1c71837f",
			"uri":"c0cb8eb0-21f9-4d5d-8694-1def1c71837f.png"
		},
		{
			"mimeType":"image/png",
			"name":"RoughBake12",
			"uri":"RoughBake12.png"
		}
	],
	"accessors":[
		{
			"bufferView":0,
			"componentType":5126,
			"count":37631,
			"max":[
				0.049780748784542084,
				0.012323259375989437,
				0.033708784729242325
			],
			"min":[
				-0.04854557290673256,
				-0.012851633131504059,
				-0.057134807109832764
			],
			"type":"VEC3"
		},
		{
			"bufferView":1,
			"componentType":5126,
			"count":37631,
			"type":"VEC3"
		},
		{
			"bufferView":2,
			"componentType":5126,
			"count":37631,
			"type":"VEC2"
		},
		{
			"bufferView":3,
			"componentType":5123,
			"count":216372,
			"type":"SCALAR"
		}
	],
	"bufferViews":[
		{
			"buffer":0,
			"byteLength":451572,
			"byteOffset":0,
			"target":34962
		},
		{
			"buffer":0,
			"byteLength":451572,
			"byteOffset":451572,
			"target":34962
		},
		{
			"buffer":0,
			"byteLength":301048,
			"byteOffset":903144,
			"target":34962
		},
		{
			"buffer":0,
			"byteLength":432744,
			"byteOffset":1204192,
			"target":34963
		}
	],
	"samplers":[
		{
			"magFilter":9729,
			"minFilter":9987
		}
	],
	"buffers":[
		{
			"byteLength":1636936,
			"uri":"A2.bin"
		}
	]
}
