{
	"asset":{
		"generator":"Khronos glTF Blender I/O v4.5.49",
		"version":"2.0"
	},
	"scene":0,
	"scenes":[
		{
			"name":"Scene",
			"nodes":[
				0
			]
		}
	],
	"nodes":[
		{
			"mesh":0,
			"name":"BAked",
			"rotation":[
				0.7070949077606201,
				0.004161535762250423,
				0.004160840529948473,
				0.7070942521095276
			]
		}
	],
	"materials":[
		{
			"doubleSided":true,
			"name":"Material.002",
			"normalTexture":{
				"index":0
			},
			"pbrMetallicRoughness":{
				"baseColorTexture":{
					"index":1
				},
				"metallicFactor":0,
				"roughnessFactor":0.5
			}
		}
	],
	"meshes":[
		{
			"name":"Curve.003",
			"primitives":[
				{
					"attributes":{
						"POSITION":0,
						"NORMAL":1,
						"TEXCOORD_0":2
					},
					"indices":3,
					"material":0
				}
			]
		}
	],
	"textures":[
		{
			"sampler":0,
			"source":0
		},
		{
			"sampler":0,
			"source":1
		}
	],
	"images":[
		{
			"mimeType":"image/png",
			"name":"BakedNormal.001",
			"uri":"BakedNormal.001.png"
		},
		{
			"mimeType":"image/png",
			"name":"BakedColor",
			"uri":"BakedColor.png"
		}
	],
	"accessors":[
		{
			"bufferView":0,
			"componentType":5126,
			"count":37555,
			"max":[
				0.5000162720680237,
				0.12465251982212067,
				0.3473610281944275
			],
			"min":[
				-0.4870847761631012,
				-0.12841708958148956,
				-0.5670666694641113
			],
			"type":"VEC3"
		},
		{
			"bufferView":1,
			"componentType":5126,
			"count":37555,
			"type":"VEC3"
		},
		{
			"bufferView":2,
			"componentType":5126,
			"count":37555,
			"type":"VEC2"
		},
		{
			"bufferView":3,
			"componentType":5123,
			"count":215988,
			"type":"SCALAR"
		}
	],
	"bufferViews":[
		{
			"buffer":0,
			"byteLength":450660,
			"byteOffset":0,
			"target":34962
		},
		{
			"buffer":0,
			"byteLength":450660,
			"byteOffset":450660,
			"target":34962
		},
		{
			"buffer":0,
			"byteLength":300440,
			"byteOffset":901320,
			"target":34962
		},
		{
			"buffer":0,
			"byteLength":431976,
			"byteOffset":1201760,
			"target":34963
		}
	],
	"samplers":[
		{
			"magFilter":9729,
			"minFilter":9987
		}
	],
	"buffers":[
		{
			"byteLength":1633736,
			"uri":"ForWebNewA.bin"
		}
	]
}
