{
	"asset":{
		"generator":"Khronos glTF Blender I/O v3.6.28",
		"version":"2.0"
	},
	"scene":0,
	"scenes":[
		{
			"name":"Scene",
			"nodes":[
				0
			]
		}
	],
	"nodes":[
		{
			"mesh":0,
			"name":"Plane.001",
			"scale":[
				0.39823976159095764,
				0.39823976159095764,
				0.39823976159095764
			]
		}
	],
	"materials":[
		{
			"doubleSided":true,
			"name":"Material.001",
			"pbrMetallicRoughness":{
				"baseColorFactor":[
					0.2832167148590088,
					0.20395022630691528,
					1,
					1
				],
				"metallicFactor":0.6000000238418579,
				"roughnessFactor":0.4000000059604645
			}
		}
	],
	"meshes":[
		{
			"name":"Plane.001",
			"primitives":[
				{
					"attributes":{
						"POSITION":0,
						"NORMAL":1,
						"TEXCOORD_0":2
					},
					"indices":3,
					"material":0
				}
			]
		}
	],
	"accessors":[
		{
			"bufferView":0,
			"componentType":5126,
			"count":7184,
			"max":[
				23.71011734008789,
				23.710113525390625,
				3.5063538551330566
			],
			"min":[
				-23.710121154785156,
				-23.710119247436523,
				-3.506361484527588
			],
			"type":"VEC3"
		},
		{
			"bufferView":1,
			"componentType":5126,
			"count":7184,
			"type":"VEC3"
		},
		{
			"bufferView":2,
			"componentType":5126,
			"count":7184,
			"type":"VEC2"
		},
		{
			"bufferView":3,
			"componentType":5123,
			"count":43008,
			"type":"SCALAR"
		}
	],
	"bufferViews":[
		{
			"buffer":0,
			"byteLength":86208,
			"byteOffset":0,
			"target":34962
		},
		{
			"buffer":0,
			"byteLength":86208,
			"byteOffset":86208,
			"target":34962
		},
		{
			"buffer":0,
			"byteLength":57472,
			"byteOffset":172416,
			"target":34962
		},
		{
			"buffer":0,
			"byteLength":86016,
			"byteOffset":229888,
			"target":34963
		}
	],
	"buffers":[
		{
			"byteLength":315904,
			"uri":"data:application/octet-stream;base64,"
		}
	]
}
