{
	"asset":{
		"generator":"Khronos glTF Blender I/O v4.5.48",
		"version":"2.0"
	},
	"scene":0,
	"scenes":[
		{
			"name":"Scene",
			"nodes":[
				0
			]
		}
	],
	"nodes":[
		{
			"mesh":0,
			"name":"Plane",
			"rotation":[
				-0.18811479210853577,
				-0.27046552300453186,
				0.054228994995355606,
				0.9426136612892151
			],
			"scale":[
				1.547640323638916,
				1.547640323638916,
				1.547640085220337
			],
			"translation":[
				0,
				15.816877365112305,
				0
			]
		}
	],
	"animations":[
		{
			"channels":[
				{
					"sampler":0,
					"target":{
						"node":0,
						"path":"rotation"
					}
				}
			],
			"name":"PlaneAction",
			"samplers":[
				{
					"input":3,
					"interpolation":"LINEAR",
					"output":4
				}
			]
		}
	],
	"materials":[
		{
			"doubleSided":true,
			"name":"Material.001",
			"pbrMetallicRoughness":{
				"roughnessFactor":0
			}
		}
	],
	"meshes":[
		{
			"name":"Plane",
			"primitives":[
				{
					"attributes":{
						"POSITION":0,
						"TEXCOORD_0":1
					},
					"indices":2,
					"material":0
				}
			]
		}
	],
	"accessors":[
		{
			"bufferView":0,
			"componentType":5126,
			"count":8980,
			"max":[
				4.0540008544921875,
				4.085378646850586,
				0.6041635274887085
			],
			"min":[
				-4.0540008544921875,
				-4.085378646850586,
				-0.6041635274887085
			],
			"type":"VEC3"
		},
		{
			"bufferView":1,
			"componentType":5126,
			"count":8980,
			"type":"VEC2"
		},
		{
			"bufferView":2,
			"componentType":5123,
			"count":53760,
			"type":"SCALAR"
		},
		{
			"bufferView":3,
			"componentType":5126,
			"count":300,
			"max":[
				12.5
			],
			"min":[
				0.041666666666666664
			],
			"type":"SCALAR"
		},
		{
			"bufferView":4,
			"componentType":5126,
			"count":300,
			"type":"VEC4"
		}
	],
	"bufferViews":[
		{
			"buffer":0,
			"byteLength":107760,
			"byteOffset":0,
			"target":34962
		},
		{
			"buffer":0,
			"byteLength":71840,
			"byteOffset":107760,
			"target":34962
		},
		{
			"buffer":0,
			"byteLength":107520,
			"byteOffset":179600,
			"target":34963
		},
		{
			"buffer":0,
			"byteLength":1200,
			"byteOffset":287120
		},
		{
			"buffer":0,
			"byteLength":4800,
			"byteOffset":288320
		}
	],
	"buffers":[
		{
			"byteLength":293120,
			"uri":"Refweb1.bin"
		}
	]
}
