{
	"asset":{
		"generator":"Khronos glTF Blender I/O v3.6.28",
		"version":"2.0"
	},
	"scene":0,
	"scenes":[
		{
			"name":"Scene",
			"nodes":[
				0
			]
		}
	],
	"nodes":[
		{
			"mesh":0,
			"name":"Bake.001",
			"translation":[
				0,
				0.01011078804731369,
				0
			]
		}
	],
	"materials":[
		{
			"doubleSided":true,
			"name":"Material.001",
			"pbrMetallicRoughness":{
				"baseColorFactor":[
					0.8000000715255737,
					0.015257744118571281,
					0,
					1
				],
				"metallicFactor":0,
				"roughnessFactor":0.3911917209625244
			}
		}
	],
	"meshes":[
		{
			"name":"Cylinder.003",
			"primitives":[
				{
					"attributes":{
						"POSITION":0,
						"NORMAL":1,
						"TEXCOORD_0":2,
						"TEXCOORD_1":3
					},
					"indices":4,
					"material":0
				},
				{
					"attributes":{
						"POSITION":5,
						"NORMAL":6,
						"TEXCOORD_0":7,
						"TEXCOORD_1":8
					},
					"indices":9,
					"material":0
				}
			]
		}
	],
	"accessors":[
		{
			"bufferView":0,
			"componentType":5126,
			"count":29781,
			"max":[
				0.6802172064781189,
				1.474955677986145,
				0.3004090487957001
			],
			"min":[
				-0.679955005645752,
				-0.8498096466064453,
				-0.34664061665534973
			],
			"type":"VEC3"
		},
		{
			"bufferView":1,
			"componentType":5126,
			"count":29781,
			"type":"VEC3"
		},
		{
			"bufferView":2,
			"componentType":5126,
			"count":29781,
			"type":"VEC2"
		},
		{
			"bufferView":3,
			"componentType":5126,
			"count":29781,
			"type":"VEC2"
		},
		{
			"bufferView":4,
			"componentType":5123,
			"count":138540,
			"type":"SCALAR"
		},
		{
			"bufferView":5,
			"componentType":5126,
			"count":454,
			"max":[
				-0.035500653088092804,
				-0.013475663959980011,
				0.07501550763845444
			],
			"min":[
				-0.3776756227016449,
				-0.4889197051525116,
				-0.2155030369758606
			],
			"type":"VEC3"
		},
		{
			"bufferView":6,
			"componentType":5126,
			"count":454,
			"type":"VEC3"
		},
		{
			"bufferView":7,
			"componentType":5126,
			"count":454,
			"type":"VEC2"
		},
		{
			"bufferView":8,
			"componentType":5126,
			"count":454,
			"type":"VEC2"
		},
		{
			"bufferView":9,
			"componentType":5123,
			"count":1872,
			"type":"SCALAR"
		}
	],
	"bufferViews":[
		{
			"buffer":0,
			"byteLength":357372,
			"byteOffset":0,
			"target":34962
		},
		{
			"buffer":0,
			"byteLength":357372,
			"byteOffset":357372,
			"target":34962
		},
		{
			"buffer":0,
			"byteLength":238248,
			"byteOffset":714744,
			"target":34962
		},
		{
			"buffer":0,
			"byteLength":238248,
			"byteOffset":952992,
			"target":34962
		},
		{
			"buffer":0,
			"byteLength":277080,
			"byteOffset":1191240,
			"target":34963
		},
		{
			"buffer":0,
			"byteLength":5448,
			"byteOffset":1468320,
			"target":34962
		},
		{
			"buffer":0,
			"byteLength":5448,
			"byteOffset":1473768,
			"target":34962
		},
		{
			"buffer":0,
			"byteLength":3632,
			"byteOffset":1479216,
			"target":34962
		},
		{
			"buffer":0,
			"byteLength":3632,
			"byteOffset":1482848,
			"target":34962
		},
		{
			"buffer":0,
			"byteLength":3744,
			"byteOffset":1486480,
			"target":34963
		}
	],
	"buffers":[
		{
			"byteLength":1490224,
			"uri":"TEst.bin"
		}
	]
}
