{
	"asset":{
		"generator":"Khronos glTF Blender I/O v4.2.70",
		"version":"2.0"
	},
	"scene":0,
	"scenes":[
		{
			"name":"Scene",
			"nodes":[
				0
			]
		}
	],
	"nodes":[
		{
			"mesh":0,
			"name":"lOWpOLE",
			"rotation":[
				0.49374592304229736,
				-0.493745893239975,
				0.5061768293380737,
				0.5061768889427185
			],
			"scale":[
				2.651383876800537,
				2.651383876800537,
				2.651383876800537
			],
			"translation":[
				3.039250612258911,
				1.621016502380371,
				0.1338135302066803
			]
		}
	],
	"materials":[
		{
			"doubleSided":true,
			"name":"Material.002",
			"normalTexture":{
				"index":0
			},
			"pbrMetallicRoughness":{
				"baseColorTexture":{
					"index":1
				},
				"metallicFactor":0,
				"metallicRoughnessTexture":{
					"index":2
				}
			}
		}
	],
	"meshes":[
		{
			"name":"Curve.001",
			"primitives":[
				{
					"attributes":{
						"POSITION":0,
						"NORMAL":1,
						"TEXCOORD_0":2
					},
					"indices":3,
					"material":0
				}
			]
		}
	],
	"textures":[
		{
			"sampler":0,
			"source":0
		},
		{
			"sampler":0,
			"source":1
		},
		{
			"sampler":0,
			"source":2
		}
	],
	"images":[
		{
			"mimeType":"image/png",
			"name":"BAkeNORMAL",
			"uri":"BAkeNORMAL.png"
		},
		{
			"mimeType":"image/png",
			"name":"BAkeCOLOR",
			"uri":"BAkeCOLOR.png"
		},
		{
			"mimeType":"image/png",
			"name":"BAkeROUGHNESS",
			"uri":"BAkeROUGHNESS.png"
		}
	],
	"accessors":[
		{
			"bufferView":0,
			"componentType":5126,
			"count":37546,
			"max":[
				0.04978371411561966,
				0.01232448685914278,
				0.03371013328433037
			],
			"min":[
				-0.04854678735136986,
				-0.012850607745349407,
				-0.0571548268198967
			],
			"type":"VEC3"
		},
		{
			"bufferView":1,
			"componentType":5126,
			"count":37546,
			"type":"VEC3"
		},
		{
			"bufferView":2,
			"componentType":5126,
			"count":37546,
			"type":"VEC2"
		},
		{
			"bufferView":3,
			"componentType":5123,
			"count":216192,
			"type":"SCALAR"
		}
	],
	"bufferViews":[
		{
			"buffer":0,
			"byteLength":450552,
			"byteOffset":0,
			"target":34962
		},
		{
			"buffer":0,
			"byteLength":450552,
			"byteOffset":450552,
			"target":34962
		},
		{
			"buffer":0,
			"byteLength":300368,
			"byteOffset":901104,
			"target":34962
		},
		{
			"buffer":0,
			"byteLength":432384,
			"byteOffset":1201472,
			"target":34963
		}
	],
	"samplers":[
		{
			"magFilter":9729,
			"minFilter":9987
		}
	],
	"buffers":[
		{
			"byteLength":1633856,
			"uri":"%D0%91%D1%83%D0%BA%D0%B2%D0%B0%20%D0%90%20.bin"
		}
	]
}
