{
	"asset":{
		"generator":"Khronos glTF Blender I/O v4.1.62",
		"version":"2.0"
	},
	"scene":0,
	"scenes":[
		{
			"name":"Scene",
			"nodes":[
				0
			]
		}
	],
	"nodes":[
		{
			"mesh":0,
			"name":"lOWpOLE",
			"rotation":[
				0.7070521712303162,
				0.008790090680122375,
				0.008789966814219952,
				0.7070521116256714
			]
		}
	],
	"materials":[
		{
			"doubleSided":true,
			"name":"Material.002",
			"normalTexture":{
				"index":0
			},
			"pbrMetallicRoughness":{
				"baseColorTexture":{
					"index":1
				},
				"metallicFactor":0,
				"metallicRoughnessTexture":{
					"index":2
				}
			}
		}
	],
	"meshes":[
		{
			"name":"Curve.001",
			"primitives":[
				{
					"attributes":{
						"POSITION":0,
						"NORMAL":1,
						"TEXCOORD_0":2
					},
					"indices":3,
					"material":0
				}
			]
		}
	],
	"textures":[
		{
			"sampler":0,
			"source":0
		},
		{
			"sampler":0,
			"source":1
		},
		{
			"sampler":0,
			"source":2
		}
	],
	"images":[
		{
			"mimeType":"image/png",
			"name":"BAkeNORMAL",
			"uri":"BAkeNORMAL.png"
		},
		{
			"mimeType":"image/png",
			"name":"BAkeCOLOR",
			"uri":"BAkeCOLOR.png"
		},
		{
			"mimeType":"image/png",
			"name":"BAkeROUGHNESS",
			"uri":"BAkeROUGHNESS.png"
		}
	],
	"accessors":[
		{
			"bufferView":0,
			"componentType":5126,
			"count":4049,
			"max":[
				2.2581355571746826,
				0.5595648288726807,
				1.5295753479003906
			],
			"min":[
				-2.2025740146636963,
				-0.5837252140045166,
				-2.5937047004699707
			],
			"type":"VEC3"
		},
		{
			"bufferView":1,
			"componentType":5126,
			"count":4049,
			"type":"VEC3"
		},
		{
			"bufferView":2,
			"componentType":5126,
			"count":4049,
			"type":"VEC2"
		},
		{
			"bufferView":3,
			"componentType":5123,
			"count":21618,
			"type":"SCALAR"
		}
	],
	"bufferViews":[
		{
			"buffer":0,
			"byteLength":48588,
			"byteOffset":0,
			"target":34962
		},
		{
			"buffer":0,
			"byteLength":48588,
			"byteOffset":48588,
			"target":34962
		},
		{
			"buffer":0,
			"byteLength":32392,
			"byteOffset":97176,
			"target":34962
		},
		{
			"buffer":0,
			"byteLength":43236,
			"byteOffset":129568,
			"target":34963
		}
	],
	"samplers":[
		{
			"magFilter":9729,
			"minFilter":9987
		}
	],
	"buffers":[
		{
			"byteLength":172804,
			"uri":"%D0%91%D1%83%D0%BA%D0%B2%D0%B0%20%D0%901%20.bin"
		}
	]
}
